<svg width="36" height="37" viewBox="0 0 36 37" fill="none" xmlns="http://www.w3.org/2000/svg">
<g id="chevron-up-outline 1">
<g id="Group">
<g id="Layer 2">
<path id="chevron-up" d="M23.9999 21.7637C23.8025 21.7648 23.6068 21.727 23.424 21.6523C23.2413 21.5777 23.0751 21.4677 22.9349 21.3287L17.9999 16.3637L13.0499 21.1337C12.7689 21.413 12.3887 21.5699 11.9924 21.5699C11.5961 21.5699 11.216 21.413 10.9349 21.1337C10.7943 20.9942 10.6827 20.8283 10.6066 20.6455C10.5304 20.4627 10.4912 20.2667 10.4912 20.0687C10.4912 19.8706 10.5304 19.6746 10.6066 19.4918C10.6827 19.309 10.7943 19.1431 10.9349 19.0037L16.9349 13.2137C17.2153 12.9388 17.5923 12.7849 17.9849 12.7849C18.3775 12.7849 18.7545 12.9388 19.0349 13.2137L25.0349 19.2137C25.1755 19.3531 25.2871 19.519 25.3632 19.7018C25.4394 19.8846 25.4786 20.0807 25.4786 20.2787C25.4786 20.4767 25.4394 20.6727 25.3632 20.8555C25.2871 21.0383 25.1755 21.2042 25.0349 21.3437C24.7568 21.6117 24.3861 21.7621 23.9999 21.7637Z" fill="#425F6A"/>
</g>
</g>
</g>
</svg>
