<svg width="36" height="37" viewBox="0 0 36 37" fill="none" xmlns="http://www.w3.org/2000/svg">
<g id="chevron-up-outline 2">
<g id="Group">
<g id="Layer 2">
<path id="chevron-up" d="M12.0001 14.2637C12.1975 14.2625 12.3932 14.3004 12.576 14.375C12.7587 14.4497 12.9249 14.5597 13.0651 14.6987L18.0001 19.6637L22.9501 14.8937C23.2311 14.6143 23.6113 14.4575 24.0076 14.4575C24.4039 14.4575 24.784 14.6143 25.0651 14.8937C25.2057 15.0331 25.3173 15.199 25.3934 15.3818C25.4696 15.5646 25.5088 15.7607 25.5088 15.9587C25.5088 16.1567 25.4696 16.3528 25.3934 16.5355C25.3173 16.7183 25.2057 16.8842 25.0651 17.0237L19.0651 22.8137C18.7847 23.0885 18.4077 23.2425 18.0151 23.2425C17.6225 23.2425 17.2455 23.0885 16.9651 22.8137L10.9651 16.8137C10.8245 16.6742 10.7129 16.5083 10.6368 16.3255C10.5606 16.1428 10.5214 15.9467 10.5214 15.7487C10.5214 15.5507 10.5606 15.3546 10.6368 15.1718C10.7129 14.989 10.8245 14.8231 10.9651 14.6837C11.2432 14.4157 11.6139 14.2652 12.0001 14.2637Z" fill="#425F6A"/>
</g>
</g>
</g>
</svg>
